<svg id="svg" version="1.1" width="400" height="256.3581433672068" viewBox="0 0 400 256.3581433672068" xmlns="http://www.w3.org/2000/svg" xmlns:xlink="http://www.w3.org/1999/xlink"><g id="svgg"><path id="path0" d="M71.473 172.347 C 53.138 173.065,32.161 178.415,10.917 187.790 C 7.438 189.326,1.611 192.218,0.870 192.778 L 0.324 193.191 0.370 211.471 C 0.422 231.669,0.352 230.389,1.455 231.540 C 2.317 232.440,3.258 232.367,4.852 231.276 C 12.562 225.998,26.950 220.602,41.583 217.500 C 51.113 215.481,57.331 214.415,65.500 213.400 C 77.409 211.920,103.492 214.575,140.333 221.017 C 144.046 221.666,147.758 222.307,148.583 222.441 C 150.707 222.786,159.791 224.472,167.333 225.920 C 170.862 226.598,174.012 227.199,174.333 227.256 C 175.679 227.496,199.865 232.300,207.083 233.762 C 211.392 234.634,216.754 235.718,219.000 236.171 C 221.246 236.624,227.358 237.862,232.583 238.921 C 247.446 241.933,269.336 246.280,272.000 246.747 C 305.387 252.605,321.966 253.092,345.628 248.909 C 348.569 248.389,350.870 247.931,356.000 246.844 C 373.149 243.208,394.879 233.941,396.130 229.731 C 396.398 228.827,396.425 191.420,396.158 190.458 C 395.918 189.593,395.595 189.654,394.167 190.836 C 384.471 198.860,356.340 207.463,330.417 210.332 C 314.866 212.053,292.585 209.868,257.280 203.161 C 253.872 202.514,240.246 199.814,227.000 197.162 C 168.904 185.532,135.430 178.948,125.417 177.181 C 103.950 173.394,85.942 171.780,71.473 172.347 " stroke="none" fill="#fccb04" fill-rule="evenodd"></path><path id="path1" d="M72.833 135.263 C 72.421 135.297,70.808 135.407,69.250 135.507 C 62.597 135.938,51.349 137.649,42.967 139.506 C 41.289 139.878,39.247 140.328,38.429 140.507 C 23.596 143.754,2.909 152.623,0.917 156.588 L 0.417 157.583 0.371 175.386 L 0.325 193.189 0.954 192.685 C 3.854 190.360,22.177 182.771,32.931 179.441 C 64.159 169.769,86.905 169.760,137.667 179.401 C 143.748 180.556,224.817 196.644,234.750 198.666 C 267.402 205.316,286.704 208.542,302.500 209.991 C 317.734 211.387,327.628 211.070,341.583 208.736 C 364.528 204.899,384.124 198.233,394.019 190.898 C 395.573 189.746,395.929 189.631,396.161 190.208 C 396.393 190.784,396.379 157.421,396.147 156.587 C 395.507 154.282,394.070 154.124,391.159 156.042 C 379.183 163.930,355.014 170.781,329.167 173.615 C 314.749 175.196,290.767 172.679,254.917 165.824 C 247.171 164.343,246.879 164.285,234.083 161.687 C 229.133 160.682,219.571 158.766,212.833 157.429 C 206.096 156.093,195.108 153.912,188.417 152.583 C 123.441 139.675,120.584 139.130,109.833 137.593 C 98.266 135.938,90.752 135.344,80.333 135.258 C 76.621 135.227,73.246 135.229,72.833 135.263 " stroke="none" fill="#fc041b" fill-rule="evenodd"></path><path id="path2" d="M12.746 6.755 C 11.335 6.962,9.734 7.294,8.292 7.679 L 7.667 7.846 7.667 59.554 L 7.667 111.263 9.292 111.552 C 22.907 113.973,24.506 113.333,25.003 105.269 C 25.089 103.869,25.160 88.441,25.162 70.554 L 25.167 38.357 26.081 38.243 C 27.318 38.088,27.305 38.079,28.686 40.030 C 32.358 45.219,38.876 54.395,41.391 57.917 C 42.243 59.108,44.428 62.183,46.248 64.750 C 48.068 67.317,50.119 70.204,50.806 71.167 C 52.316 73.282,52.906 74.113,57.671 80.833 C 59.718 83.721,61.828 86.683,62.358 87.417 C 62.889 88.150,64.647 90.625,66.265 92.917 C 69.752 97.855,69.436 97.479,69.752 97.074 C 70.056 96.686,72.977 92.590,73.333 92.053 C 73.562 91.709,76.381 87.758,79.198 83.833 C 79.823 82.962,81.025 81.275,81.868 80.083 C 82.712 78.892,85.433 75.067,87.916 71.583 C 92.380 65.320,100.006 54.607,104.942 47.667 C 106.344 45.696,107.624 43.897,107.787 43.670 C 107.950 43.443,108.948 42.048,110.005 40.569 L 111.926 37.882 113.046 38.216 L 114.167 38.550 114.167 75.191 L 114.167 111.833 122.667 111.833 L 131.167 111.833 131.167 59.843 C 131.167 31.249,131.109 7.817,131.038 7.774 C 129.257 6.673,120.081 6.193,116.966 7.038 C 111.138 8.619,107.673 11.793,103.087 19.750 C 99.771 25.502,93.583 34.459,86.331 44.000 C 85.809 44.688,84.110 47.012,82.555 49.167 C 78.021 55.451,76.313 57.796,74.819 59.783 C 74.048 60.809,72.485 62.893,71.347 64.413 L 69.277 67.176 68.763 66.427 C 68.226 65.642,60.143 54.300,59.195 53.000 C 50.639 41.267,41.780 28.459,36.600 20.333 C 29.092 8.554,23.239 5.223,12.746 6.755 M188.958 6.783 L 154.500 6.834 154.500 59.149 L 154.500 111.464 157.708 111.564 C 162.661 111.718,193.934 111.920,208.250 111.889 C 226.528 111.851,241.086 111.364,244.297 110.685 C 254.158 108.597,262.055 101.223,264.981 91.370 C 267.230 83.798,266.381 77.380,261.627 66.000 C 258.844 59.337,258.295 57.832,258.536 57.528 C 258.653 57.379,259.179 56.740,259.702 56.110 C 266.324 48.136,268.299 38.327,265.167 28.973 C 261.251 17.278,253.235 10.025,241.629 7.676 C 236.565 6.651,239.833 6.706,188.958 6.783 M282.000 15.583 L 282.000 23.667 305.417 23.667 L 328.833 23.667 328.833 67.750 L 328.833 111.833 337.750 111.833 L 346.667 111.833 346.667 67.583 L 346.667 23.333 369.667 23.333 L 392.667 23.333 392.667 15.417 L 392.667 7.500 337.333 7.500 L 282.000 7.500 282.000 15.583 M149.167 62.417 L 149.167 116.333 194.500 116.333 L 239.833 116.333 239.833 115.667 L 239.833 115.000 195.167 115.000 L 150.500 115.000 150.500 61.750 L 150.500 8.500 149.833 8.500 L 149.167 8.500 149.167 62.417 M276.625 8.621 L 276.000 8.687 276.000 18.677 L 276.000 28.667 299.667 28.667 L 323.333 28.667 323.333 72.500 L 323.333 116.333 333.750 116.333 L 344.167 116.333 344.167 115.667 L 344.167 115.000 334.833 115.000 L 325.500 115.000 325.500 70.083 L 325.500 25.167 301.500 25.167 L 277.500 25.167 277.500 16.833 C 277.500 12.250,277.444 8.513,277.375 8.528 C 277.306 8.543,276.969 8.585,276.625 8.621 M3.083 8.813 L 2.583 8.920 2.541 62.627 L 2.499 116.333 12.666 116.333 L 22.833 116.333 22.833 115.583 L 22.833 114.833 13.583 114.833 L 4.333 114.833 4.333 61.750 L 4.333 8.667 3.958 8.686 C 3.752 8.697,3.358 8.754,3.083 8.813 M237.044 23.966 C 243.823 25.403,247.813 29.872,248.120 36.375 C 248.510 44.623,243.454 50.023,234.583 50.833 C 230.628 51.195,219.431 51.311,197.772 51.214 L 175.294 51.113 175.419 51.515 C 176.992 56.566,182.886 63.019,188.171 65.476 C 192.963 67.704,194.845 67.909,209.417 67.785 C 232.050 67.593,236.478 67.875,240.475 69.760 C 251.637 75.024,250.660 90.606,238.917 94.613 C 235.655 95.725,232.779 95.810,197.958 95.824 L 172.167 95.833 172.167 59.662 L 172.167 23.490 203.708 23.538 L 235.250 23.586 237.044 23.966 M184.813 25.625 L 175.543 25.669 175.426 26.851 C 175.362 27.501,175.334 28.055,175.363 28.083 C 175.826 28.523,183.187 28.667,206.250 28.688 C 231.923 28.712,232.934 28.740,235.417 29.506 C 239.650 30.813,242.772 33.980,244.324 38.541 L 244.792 39.917 244.920 39.263 C 245.757 34.986,243.551 29.576,240.138 27.540 C 236.721 25.500,233.560 25.391,184.813 25.625 M350.833 27.167 L 350.833 27.833 371.250 27.833 L 391.667 27.833 391.667 27.167 L 391.667 26.500 371.250 26.500 L 350.833 26.500 350.833 27.167 M28.107 46.331 C 27.386 46.780,26.768 47.177,26.733 47.211 C 26.698 47.246,27.302 48.169,28.075 49.262 C 28.848 50.356,30.037 52.038,30.718 53.000 C 32.959 56.167,38.032 63.380,39.404 65.348 C 40.144 66.411,42.325 69.511,44.250 72.239 C 46.175 74.966,48.425 78.164,49.250 79.346 C 50.075 80.527,52.376 83.801,54.364 86.622 C 56.352 89.442,58.188 92.050,58.444 92.417 C 58.700 92.783,59.890 94.471,61.089 96.167 C 62.287 97.862,63.777 99.986,64.400 100.886 C 65.788 102.892,65.664 102.848,67.220 101.897 C 68.758 100.958,68.770 101.310,67.121 98.982 C 66.367 97.917,65.188 96.244,64.500 95.263 C 63.813 94.281,62.234 92.040,60.992 90.281 C 58.118 86.211,55.286 82.183,53.583 79.744 C 52.850 78.694,50.712 75.657,48.833 72.997 C 46.954 70.336,44.742 67.191,43.917 66.007 C 43.092 64.823,40.767 61.519,38.750 58.663 C 36.733 55.808,34.790 53.047,34.432 52.528 C 33.416 51.053,29.467 45.499,29.441 45.507 C 29.427 45.510,28.827 45.881,28.107 46.331 M109.000 81.818 L 109.000 116.333 118.750 116.333 L 128.500 116.333 128.500 115.583 L 128.500 114.833 119.917 114.833 L 111.333 114.833 111.333 81.261 C 111.333 49.430,111.318 47.685,111.042 47.607 C 110.881 47.561,110.356 47.474,109.875 47.413 L 109.000 47.302 109.000 81.818 M175.125 59.972 L 174.334 60.251 175.693 62.000 C 182.298 70.508,186.619 73.090,194.167 73.039 C 222.572 72.849,229.846 72.923,232.522 73.431 C 238.148 74.498,242.538 78.088,244.193 82.976 C 244.666 84.373,244.784 84.026,244.814 81.152 C 244.869 75.692,242.275 72.342,236.954 71.004 C 232.836 69.968,217.954 69.737,205.667 70.519 C 192.729 71.341,183.329 68.076,177.483 60.728 C 176.551 59.558,176.419 59.515,175.125 59.972 " stroke="none" fill="#040404" fill-rule="evenodd"></path><path id="path3" d="" stroke="none" fill="#1009810" fill-rule="evenodd"></path><path id="path4" d="" stroke="none" fill="#3c6c10" fill-rule="evenodd"></path></g></svg>