<svg id="svg" version="1.1" width="400" height="256.3581433672068" viewBox="0 0 400 256.3581433672068" xmlns="http://www.w3.org/2000/svg" xmlns:xlink="http://www.w3.org/1999/xlink"><g id="svgg"><path id="path0" d="M13.833 6.700 C 11.817 7.014,10.025 7.357,8.917 7.640 L 7.750 7.938 7.708 59.614 L 7.666 111.291 8.458 111.379 C 8.894 111.427,10.563 111.692,12.167 111.969 C 22.107 113.682,24.053 112.914,24.873 106.948 C 25.037 105.757,25.083 97.956,25.083 71.817 L 25.083 38.218 25.667 38.198 C 25.988 38.187,26.512 38.138,26.833 38.090 L 27.417 38.003 31.250 43.447 C 33.358 46.441,35.503 49.459,36.016 50.154 C 36.528 50.848,37.316 51.950,37.766 52.601 C 38.215 53.253,40.383 56.314,42.583 59.404 C 44.783 62.495,46.748 65.262,46.949 65.553 C 47.495 66.344,48.710 68.056,54.667 76.422 C 57.646 80.606,60.625 84.792,61.286 85.723 C 61.948 86.655,64.047 89.610,65.952 92.292 C 67.857 94.973,69.453 97.166,69.499 97.165 C 69.579 97.163,72.795 92.699,75.218 89.226 C 76.100 87.961,82.949 78.351,83.408 77.733 C 83.688 77.357,84.029 76.880,84.167 76.672 C 84.304 76.464,84.642 75.984,84.917 75.605 C 85.192 75.227,85.529 74.753,85.667 74.553 C 85.804 74.352,87.642 71.772,89.750 68.818 C 91.858 65.864,93.951 62.915,94.399 62.265 C 94.848 61.615,95.605 60.558,96.081 59.917 C 96.557 59.275,98.060 57.175,99.421 55.250 C 100.782 53.325,103.392 49.650,105.221 47.083 C 112.807 36.439,111.731 37.660,113.120 38.123 L 114.083 38.444 114.125 75.139 L 114.167 111.833 122.667 111.833 L 131.167 111.833 131.167 59.861 L 131.167 7.888 129.458 7.506 C 126.375 6.814,124.111 6.552,121.685 6.604 C 119.488 6.651,119.056 6.686,118.055 6.903 C 117.795 6.960,117.433 7.034,117.250 7.069 C 111.959 8.082,107.731 11.968,102.910 20.250 C 100.627 24.172,96.855 29.869,93.510 34.447 C 90.477 38.597,86.906 43.439,86.754 43.605 C 86.660 43.708,86.471 43.960,86.333 44.164 C 86.196 44.369,85.209 45.718,84.141 47.163 C 83.073 48.608,82.004 50.081,81.766 50.437 C 80.909 51.720,79.738 53.329,75.530 59.000 C 73.932 61.154,72.052 63.693,71.354 64.641 C 69.607 67.012,69.413 67.236,69.213 67.112 C 69.117 67.052,67.888 65.372,66.482 63.377 C 65.076 61.382,63.023 58.504,61.921 56.981 C 60.819 55.457,59.804 54.044,59.667 53.840 C 59.529 53.636,59.241 53.232,59.027 52.943 C 57.622 51.046,46.227 35.024,45.613 34.083 C 45.374 33.717,44.938 33.079,44.645 32.667 C 43.448 30.986,37.747 22.380,35.923 19.500 C 31.125 11.923,27.637 8.830,22.117 7.257 C 19.882 6.620,16.017 6.361,13.833 6.700 M221.417 6.863 C 219.033 6.928,203.002 6.943,185.792 6.897 L 154.500 6.813 154.500 59.131 L 154.500 111.449 162.125 111.557 C 197.510 112.062,233.730 111.803,241.481 110.991 C 254.353 109.642,264.291 99.648,265.920 86.417 C 266.021 85.598,266.034 81.069,265.938 80.417 C 265.911 80.233,265.830 79.671,265.758 79.167 C 265.288 75.868,264.121 72.263,261.480 65.959 C 260.740 64.194,259.705 61.620,259.180 60.238 L 258.225 57.727 259.203 56.572 C 261.284 54.114,264.023 49.607,264.665 47.583 C 264.782 47.217,264.931 46.842,264.998 46.750 C 265.064 46.658,265.160 46.433,265.211 46.250 C 266.238 42.564,266.528 40.639,266.506 37.667 C 266.497 36.429,266.461 35.211,266.426 34.959 C 264.722 22.617,256.844 12.522,246.167 8.998 C 244.247 8.364,241.909 7.759,240.667 7.574 C 240.346 7.526,239.896 7.451,239.667 7.406 C 238.945 7.267,238.450 7.199,237.250 7.073 C 236.608 7.006,235.896 6.928,235.667 6.898 C 234.716 6.777,225.439 6.754,221.417 6.863 M282.000 15.583 L 282.000 23.667 305.417 23.667 L 328.833 23.667 328.833 67.750 L 328.833 111.833 337.750 111.833 L 346.667 111.833 346.667 67.583 L 346.667 23.333 369.667 23.333 L 392.667 23.333 392.667 15.417 L 392.667 7.500 337.333 7.500 L 282.000 7.500 282.000 15.583 M149.375 8.607 C 149.209 8.677,149.167 19.616,149.167 62.514 L 149.167 116.333 194.500 116.333 L 239.833 116.333 239.833 115.667 L 239.833 115.000 195.167 115.000 L 150.501 115.000 150.459 61.792 L 150.417 8.583 150.000 8.551 C 149.771 8.534,149.490 8.559,149.375 8.607 M3.208 8.875 L 2.500 9.020 2.500 62.676 L 2.500 116.333 12.667 116.333 L 22.833 116.333 22.833 115.667 L 22.833 115.000 13.583 115.000 L 4.333 115.000 4.333 61.861 C 4.333 19.459,4.291 8.723,4.125 8.726 C 4.010 8.729,3.598 8.796,3.208 8.875 M276.195 8.796 C 276.049 8.845,276.000 11.344,276.000 18.764 L 276.000 28.667 299.667 28.667 L 323.333 28.667 323.333 72.500 L 323.333 116.333 333.750 116.333 L 344.167 116.333 344.167 115.667 L 344.167 115.000 334.833 115.000 L 325.500 115.000 325.500 70.083 L 325.500 25.167 301.500 25.167 L 277.500 25.167 277.500 16.911 L 277.500 8.656 276.945 8.694 C 276.640 8.714,276.303 8.760,276.195 8.796 M235.000 23.567 C 243.564 24.600,248.194 29.405,248.203 37.267 C 248.212 45.052,243.172 50.196,234.833 50.914 C 234.237 50.965,233.037 51.054,232.167 51.112 C 231.296 51.169,218.210 51.247,203.086 51.286 C 187.963 51.324,175.554 51.391,175.511 51.434 C 175.262 51.683,178.506 57.202,179.775 58.689 C 184.538 64.270,190.084 67.115,197.250 67.654 C 198.350 67.736,204.650 67.765,211.250 67.718 C 224.083 67.626,233.673 67.827,235.833 68.234 C 237.290 68.508,239.080 68.959,239.475 69.152 C 239.626 69.227,240.275 69.530,240.917 69.828 C 244.445 71.462,247.126 74.710,247.936 78.333 C 248.194 79.491,248.323 83.614,248.123 84.333 C 248.085 84.471,247.994 84.874,247.921 85.229 C 246.848 90.455,242.200 94.451,236.083 95.405 C 233.452 95.815,223.842 95.893,181.875 95.845 L 172.167 95.833 172.167 59.588 L 172.167 23.342 203.125 23.399 C 220.152 23.431,234.496 23.506,235.000 23.567 M175.597 25.860 C 175.465 26.280,175.365 28.167,175.478 28.097 C 175.541 28.058,176.753 28.148,178.171 28.297 C 180.413 28.532,184.027 28.571,205.858 28.599 C 235.686 28.637,234.495 28.552,238.888 30.941 C 240.935 32.054,243.334 35.333,244.419 38.500 L 244.790 39.583 244.912 38.641 C 245.710 32.481,241.961 27.258,235.948 26.155 C 235.381 26.051,234.729 25.929,234.500 25.884 C 233.381 25.663,175.667 25.640,175.597 25.860 M350.833 27.167 L 350.833 27.833 371.250 27.833 L 391.667 27.833 391.667 27.167 L 391.667 26.500 371.250 26.500 L 350.833 26.500 350.833 27.167 M28.131 46.444 L 26.845 47.230 27.205 47.823 C 27.404 48.150,27.609 48.454,27.662 48.500 C 27.715 48.546,28.989 50.346,30.494 52.500 C 31.999 54.654,34.211 57.804,35.410 59.500 C 36.610 61.196,37.800 62.883,38.057 63.250 C 39.186 64.867,45.407 73.687,46.109 74.667 C 46.536 75.262,47.305 76.361,47.818 77.107 C 48.662 78.337,54.711 86.935,56.470 89.406 C 56.865 89.962,57.361 90.679,57.571 91.000 C 57.911 91.520,61.303 96.331,61.625 96.750 C 61.696 96.842,62.645 98.192,63.735 99.750 C 64.825 101.308,65.732 102.604,65.751 102.628 C 65.806 102.702,68.334 101.123,68.331 101.016 C 68.330 100.961,66.023 97.636,63.206 93.627 C 60.388 89.618,56.175 83.618,53.842 80.294 C 51.510 76.970,48.877 73.237,47.992 72.000 C 47.106 70.762,45.940 69.109,45.399 68.325 C 44.859 67.541,42.842 64.668,40.917 61.940 C 38.992 59.213,37.174 56.629,36.878 56.199 C 36.581 55.769,35.831 54.692,35.211 53.807 C 31.219 48.106,29.943 46.300,29.696 45.999 C 29.418 45.661,29.408 45.664,28.131 46.444 M109.000 81.844 L 109.000 116.333 118.750 116.333 L 128.500 116.333 128.500 115.580 L 128.500 114.827 119.875 114.872 L 111.250 114.917 111.292 81.302 L 111.335 47.687 110.542 47.579 C 110.107 47.519,109.581 47.445,109.375 47.413 L 109.000 47.355 109.000 81.844 M175.280 60.014 L 174.477 60.283 175.767 61.933 C 182.740 70.855,187.424 73.442,195.917 73.059 C 197.658 72.981,205.946 72.924,214.333 72.932 C 229.896 72.948,231.194 72.994,233.583 73.609 C 234.133 73.750,234.733 73.895,234.917 73.930 C 235.274 73.998,235.283 74.001,237.167 74.876 C 240.231 76.298,242.757 79.090,244.117 82.557 L 244.574 83.722 244.718 83.069 C 244.966 81.945,244.745 78.716,244.336 77.500 C 242.774 72.851,239.064 70.792,231.583 70.423 C 223.021 70.002,214.504 70.014,208.333 70.458 C 206.064 70.621,198.089 70.620,196.583 70.457 C 194.381 70.218,193.914 70.145,192.500 69.822 C 191.721 69.645,190.896 69.457,190.667 69.406 C 185.922 68.346,179.931 64.354,177.036 60.324 C 176.541 59.635,176.458 59.620,175.280 60.014 " stroke="none" fill="#fcfcfc" fill-rule="evenodd"></path><path id="path1" d="M72.833 135.263 C 72.421 135.297,70.808 135.407,69.250 135.507 C 62.597 135.938,51.349 137.649,42.967 139.506 C 41.289 139.878,39.247 140.328,38.429 140.507 C 23.596 143.754,2.909 152.623,0.917 156.588 L 0.417 157.583 0.371 175.393 L 0.325 193.204 0.871 192.743 C 4.019 190.088,24.762 181.748,36.917 178.250 C 68.873 169.054,89.893 169.869,155.083 182.831 C 161.500 184.107,169.825 185.758,173.583 186.501 C 191.421 190.023,225.888 196.886,234.333 198.597 C 292.854 210.455,314.064 212.711,336.750 209.490 C 361.115 206.031,383.986 198.571,394.262 190.732 C 395.553 189.747,395.934 189.642,396.161 190.208 C 396.393 190.784,396.379 157.421,396.147 156.587 C 395.507 154.282,394.070 154.124,391.159 156.042 C 379.183 163.930,355.014 170.781,329.167 173.615 C 314.749 175.196,290.767 172.679,254.917 165.824 C 247.171 164.343,246.879 164.285,234.083 161.687 C 229.133 160.682,219.571 158.766,212.833 157.429 C 206.096 156.093,195.108 153.912,188.417 152.583 C 123.441 139.675,120.584 139.130,109.833 137.593 C 98.266 135.938,90.752 135.344,80.333 135.258 C 76.621 135.227,73.246 135.229,72.833 135.263 " stroke="none" fill="#fc041b" fill-rule="evenodd"></path><path id="path2" d="M70.294 172.347 C 52.627 173.224,31.742 178.598,11.583 187.456 C 7.484 189.257,1.506 192.208,0.870 192.744 L 0.324 193.205 0.370 211.477 C 0.416 229.683,0.418 229.753,0.769 230.500 C 1.650 232.374,2.893 232.651,4.719 231.378 C 12.294 226.101,26.840 220.625,41.583 217.500 C 51.033 215.498,57.400 214.406,65.500 213.400 C 77.409 211.920,103.492 214.575,140.333 221.017 C 144.046 221.666,147.758 222.307,148.583 222.441 C 150.571 222.764,160.350 224.581,167.417 225.941 C 170.533 226.540,173.683 227.137,174.417 227.267 C 175.150 227.397,181.000 228.546,187.417 229.821 C 193.833 231.096,199.271 232.172,199.500 232.211 C 199.729 232.250,205.167 233.349,211.583 234.654 C 237.023 239.828,244.913 241.421,257.000 243.822 C 269.483 246.303,270.853 246.561,278.250 247.827 C 299.043 251.386,317.883 252.512,331.250 250.996 C 356.385 248.146,378.021 241.888,391.867 233.462 C 394.718 231.727,395.825 230.758,396.130 229.731 C 396.388 228.859,396.428 190.938,396.171 190.261 C 395.934 189.639,395.580 189.726,394.262 190.732 C 383.986 198.571,361.115 206.031,336.750 209.490 C 314.064 212.711,292.854 210.455,234.333 198.597 C 225.888 196.886,191.421 190.023,173.583 186.501 C 169.825 185.758,161.500 184.107,155.083 182.831 C 109.475 173.763,90.081 171.365,70.294 172.347 " stroke="none" fill="#fccb04" fill-rule="evenodd"></path><path id="path3" d="M223.875 6.788 C 224.219 6.824,224.781 6.824,225.125 6.788 C 225.469 6.752,225.188 6.723,224.500 6.723 C 223.813 6.723,223.531 6.752,223.875 6.788 M197.208 6.958 C 200.027 6.984,204.640 6.984,207.458 6.958 C 210.277 6.933,207.971 6.912,202.333 6.912 C 196.696 6.912,194.390 6.933,197.208 6.958 M29.019 10.875 C 29.060 10.898,29.728 11.517,30.505 12.250 L 31.917 13.583 30.587 12.208 C 29.856 11.452,29.187 10.833,29.101 10.833 C 29.015 10.833,28.978 10.852,29.019 10.875 M108.573 11.875 L 108.083 12.417 108.625 11.927 C 108.923 11.658,109.167 11.414,109.167 11.385 C 109.167 11.257,109.029 11.370,108.573 11.875 M33.167 15.333 C 33.457 15.700,33.732 16.000,33.778 16.000 C 33.824 16.000,33.624 15.700,33.333 15.333 C 33.043 14.967,32.768 14.667,32.722 14.667 C 32.676 14.667,32.876 14.967,33.167 15.333 M257.250 15.833 C 257.887 16.475,258.445 17.000,258.491 17.000 C 258.537 17.000,258.053 16.475,257.417 15.833 C 256.780 15.192,256.221 14.667,256.176 14.667 C 256.130 14.667,256.613 15.192,257.250 15.833 M196.054 23.458 C 200.805 23.483,208.530 23.483,213.221 23.458 C 217.912 23.434,214.025 23.414,204.583 23.414 C 195.142 23.414,191.304 23.434,196.054 23.458 M226.042 23.456 C 226.477 23.490,227.190 23.490,227.625 23.456 C 228.060 23.422,227.704 23.393,226.833 23.393 C 225.963 23.393,225.606 23.422,226.042 23.456 M262.949 23.915 C 263.102 24.234,263.256 24.466,263.292 24.430 C 263.368 24.354,262.862 23.333,262.748 23.333 C 262.706 23.333,262.797 23.595,262.949 23.915 M200.471 25.625 C 204.075 25.650,209.925 25.650,213.471 25.625 C 217.016 25.600,214.067 25.579,206.917 25.579 C 199.767 25.579,196.866 25.600,200.471 25.625 M227.375 25.782 C 227.535 25.823,227.798 25.823,227.958 25.782 C 228.119 25.740,227.987 25.705,227.667 25.705 C 227.346 25.705,227.215 25.740,227.375 25.782 M231.455 25.787 C 231.750 25.824,232.275 25.824,232.621 25.788 C 232.967 25.752,232.725 25.722,232.083 25.721 C 231.442 25.721,231.159 25.750,231.455 25.787 M244.417 27.667 C 244.775 28.033,245.105 28.333,245.151 28.333 C 245.197 28.333,244.941 28.033,244.583 27.667 C 244.225 27.300,243.895 27.000,243.849 27.000 C 243.803 27.000,244.059 27.300,244.417 27.667 M226.382 28.624 C 227.004 28.656,227.979 28.656,228.549 28.623 C 229.118 28.591,228.608 28.564,227.417 28.565 C 226.225 28.565,225.759 28.592,226.382 28.624 M217.384 28.791 C 218.374 28.821,219.949 28.821,220.884 28.791 C 221.819 28.761,221.008 28.737,219.083 28.737 C 217.158 28.737,216.394 28.762,217.384 28.791 M240.750 32.667 C 241.294 33.217,241.777 33.667,241.823 33.667 C 241.869 33.667,241.461 33.217,240.917 32.667 C 240.372 32.117,239.890 31.667,239.844 31.667 C 239.798 31.667,240.206 32.117,240.750 32.667 M48.000 37.500 C 48.196 37.775,48.394 38.000,48.439 38.000 C 48.485 38.000,48.362 37.775,48.167 37.500 C 47.971 37.225,47.773 37.000,47.727 37.000 C 47.681 37.000,47.804 37.225,48.000 37.500 M111.333 38.500 C 111.138 38.775,111.015 39.000,111.061 39.000 C 111.106 39.000,111.304 38.775,111.500 38.500 C 111.696 38.225,111.819 38.000,111.773 38.000 C 111.727 38.000,111.529 38.225,111.333 38.500 M52.833 44.333 C 53.029 44.608,53.227 44.833,53.273 44.833 C 53.319 44.833,53.196 44.608,53.000 44.333 C 52.804 44.058,52.606 43.833,52.561 43.833 C 52.515 43.833,52.638 44.058,52.833 44.333 M106.833 44.833 C 106.638 45.108,106.515 45.333,106.561 45.333 C 106.606 45.333,106.804 45.108,107.000 44.833 C 107.196 44.558,107.319 44.333,107.273 44.333 C 107.227 44.333,107.029 44.558,106.833 44.833 M244.491 46.792 L 243.917 47.417 244.542 46.842 C 244.885 46.526,245.167 46.245,245.167 46.217 C 245.167 46.090,245.026 46.210,244.491 46.792 M34.667 48.500 C 34.862 48.775,35.060 49.000,35.106 49.000 C 35.152 49.000,35.029 48.775,34.833 48.500 C 34.638 48.225,34.440 48.000,34.394 48.000 C 34.348 48.000,34.471 48.225,34.667 48.500 M241.000 49.167 C 240.679 49.342,240.477 49.489,240.550 49.493 C 240.727 49.502,241.667 49.013,241.667 48.912 C 241.667 48.803,241.657 48.807,241.000 49.167 M229.960 51.118 C 230.168 51.158,230.468 51.156,230.627 51.115 C 230.786 51.073,230.617 51.040,230.250 51.042 C 229.883 51.044,229.753 51.078,229.960 51.118 M183.362 51.292 C 187.824 51.316,195.174 51.316,199.696 51.292 C 204.217 51.267,200.567 51.247,191.583 51.247 C 182.600 51.247,178.901 51.267,183.362 51.292 M222.958 51.289 C 223.348 51.324,223.985 51.324,224.375 51.289 C 224.765 51.254,224.446 51.225,223.667 51.225 C 222.887 51.225,222.569 51.254,222.958 51.289 M78.999 54.042 C 78.754 54.377,78.714 54.493,78.894 54.347 C 79.167 54.125,79.580 53.500,79.454 53.500 C 79.422 53.500,79.218 53.744,78.999 54.042 M40.333 56.500 C 40.529 56.775,40.727 57.000,40.773 57.000 C 40.819 57.000,40.696 56.775,40.500 56.500 C 40.304 56.225,40.106 56.000,40.061 56.000 C 40.015 56.000,40.138 56.225,40.333 56.500 M97.333 58.167 C 97.138 58.442,97.015 58.667,97.061 58.667 C 97.106 58.667,97.304 58.442,97.500 58.167 C 97.696 57.892,97.819 57.667,97.773 57.667 C 97.727 57.667,97.529 57.892,97.333 58.167 M38.500 58.500 C 38.696 58.775,38.894 59.000,38.939 59.000 C 38.985 59.000,38.862 58.775,38.667 58.500 C 38.471 58.225,38.273 58.000,38.227 58.000 C 38.181 58.000,38.304 58.225,38.500 58.500 M63.000 58.500 C 63.196 58.775,63.394 59.000,63.439 59.000 C 63.485 59.000,63.362 58.775,63.167 58.500 C 62.971 58.225,62.773 58.000,62.727 58.000 C 62.681 58.000,62.804 58.225,63.000 58.500 M181.750 61.000 C 182.479 61.733,183.113 62.333,183.159 62.333 C 183.205 62.333,182.646 61.733,181.917 61.000 C 181.188 60.267,180.554 59.667,180.508 59.667 C 180.462 59.667,181.021 60.267,181.750 61.000 M44.500 62.333 C 44.696 62.608,44.894 62.833,44.939 62.833 C 44.985 62.833,44.862 62.608,44.667 62.333 C 44.471 62.058,44.273 61.833,44.227 61.833 C 44.181 61.833,44.304 62.058,44.500 62.333 M179.500 63.083 C 180.091 63.679,180.611 64.167,180.657 64.167 C 180.703 64.167,180.257 63.679,179.667 63.083 C 179.076 62.487,178.555 62.000,178.510 62.000 C 178.464 62.000,178.909 62.487,179.500 63.083 M179.750 66.833 C 180.201 67.292,180.608 67.667,180.654 67.667 C 180.700 67.667,180.368 67.292,179.917 66.833 C 179.465 66.375,179.058 66.000,179.013 66.000 C 178.967 66.000,179.299 66.375,179.750 66.833 M197.794 67.785 C 198.001 67.824,198.301 67.823,198.460 67.781 C 198.620 67.739,198.450 67.707,198.083 67.709 C 197.717 67.711,197.586 67.745,197.794 67.785 M207.365 67.791 C 208.529 67.820,210.479 67.820,211.698 67.791 C 212.918 67.763,211.967 67.739,209.583 67.739 C 207.200 67.739,206.202 67.763,207.365 67.791 M223.208 67.790 C 223.827 67.822,224.840 67.822,225.458 67.790 C 226.077 67.758,225.571 67.732,224.333 67.732 C 223.096 67.732,222.590 67.758,223.208 67.790 M188.667 68.722 C 188.667 68.766,188.909 68.885,189.205 68.988 C 189.500 69.091,189.669 69.107,189.580 69.023 C 189.390 68.846,188.667 68.607,188.667 68.722 M240.514 69.729 C 240.685 69.882,241.667 70.333,241.667 70.259 C 241.667 70.163,240.743 69.667,240.564 69.667 C 240.498 69.667,240.476 69.695,240.514 69.729 M215.208 70.121 C 215.552 70.157,216.115 70.157,216.458 70.121 C 216.802 70.085,216.521 70.056,215.833 70.056 C 215.146 70.056,214.865 70.085,215.208 70.121 M221.792 70.122 C 222.181 70.157,222.819 70.157,223.208 70.122 C 223.598 70.087,223.279 70.058,222.500 70.058 C 221.721 70.058,221.402 70.087,221.792 70.122 M210.375 70.282 C 210.535 70.323,210.798 70.323,210.958 70.282 C 211.119 70.240,210.987 70.205,210.667 70.205 C 210.346 70.205,210.215 70.240,210.375 70.282 M228.294 70.285 C 228.501 70.324,228.801 70.323,228.960 70.281 C 229.120 70.239,228.950 70.207,228.583 70.209 C 228.217 70.211,228.086 70.245,228.294 70.285 M232.208 70.448 C 232.369 70.490,232.631 70.490,232.792 70.448 C 232.952 70.406,232.821 70.372,232.500 70.372 C 232.179 70.372,232.048 70.406,232.208 70.448 M198.875 70.615 C 199.035 70.657,199.298 70.657,199.458 70.615 C 199.619 70.573,199.487 70.539,199.167 70.539 C 198.846 70.539,198.715 70.573,198.875 70.615 M204.627 70.618 C 204.834 70.658,205.134 70.656,205.294 70.615 C 205.453 70.573,205.283 70.540,204.917 70.542 C 204.550 70.544,204.420 70.578,204.627 70.618 M48.000 72.000 C 48.196 72.275,48.394 72.500,48.439 72.500 C 48.485 72.500,48.362 72.275,48.167 72.000 C 47.971 71.725,47.773 71.500,47.727 71.500 C 47.681 71.500,47.804 71.725,48.000 72.000 M44.167 72.167 C 44.362 72.442,44.560 72.667,44.606 72.667 C 44.652 72.667,44.529 72.442,44.333 72.167 C 44.138 71.892,43.940 71.667,43.894 71.667 C 43.848 71.667,43.971 71.892,44.167 72.167 M244.583 72.500 C 245.035 72.958,245.442 73.333,245.487 73.333 C 245.533 73.333,245.201 72.958,244.750 72.500 C 244.299 72.042,243.892 71.667,243.846 71.667 C 243.800 71.667,244.132 72.042,244.583 72.500 M199.460 72.951 C 199.668 72.991,199.968 72.990,200.127 72.948 C 200.286 72.906,200.117 72.874,199.750 72.875 C 199.383 72.877,199.253 72.911,199.460 72.951 M213.463 72.956 C 213.855 72.991,214.455 72.990,214.796 72.954 C 215.137 72.919,214.817 72.890,214.083 72.890 C 213.350 72.891,213.071 72.920,213.463 72.956 M223.542 72.953 C 223.794 72.991,224.206 72.991,224.458 72.953 C 224.710 72.915,224.504 72.883,224.000 72.883 C 223.496 72.883,223.290 72.915,223.542 72.953 M227.460 72.951 C 227.668 72.991,227.968 72.990,228.127 72.948 C 228.286 72.906,228.117 72.874,227.750 72.875 C 227.383 72.877,227.253 72.911,227.460 72.951 M242.999 74.792 C 243.218 75.090,243.422 75.333,243.454 75.333 C 243.580 75.333,243.167 74.708,242.894 74.486 C 242.714 74.340,242.754 74.456,242.999 74.792 M54.999 77.125 C 55.218 77.423,55.422 77.667,55.454 77.667 C 55.580 77.667,55.167 77.042,54.894 76.820 C 54.714 76.673,54.754 76.790,54.999 77.125 M52.652 78.639 C 52.742 78.807,52.946 79.050,53.106 79.180 C 53.286 79.327,53.246 79.210,53.001 78.875 C 52.563 78.277,52.399 78.166,52.652 78.639 M49.667 80.000 C 49.862 80.275,50.060 80.500,50.106 80.500 C 50.152 80.500,50.029 80.275,49.833 80.000 C 49.638 79.725,49.440 79.500,49.394 79.500 C 49.348 79.500,49.471 79.725,49.667 80.000 M248.221 81.750 C 248.222 82.392,248.252 82.634,248.288 82.288 C 248.324 81.942,248.324 81.417,248.287 81.121 C 248.250 80.825,248.221 81.108,248.221 81.750 M57.500 85.500 C 57.696 85.775,57.894 86.000,57.939 86.000 C 57.985 86.000,57.862 85.775,57.667 85.500 C 57.471 85.225,57.273 85.000,57.227 85.000 C 57.181 85.000,57.304 85.225,57.500 85.500 M77.167 86.500 C 76.971 86.775,76.848 87.000,76.894 87.000 C 76.940 87.000,77.138 86.775,77.333 86.500 C 77.529 86.225,77.652 86.000,77.606 86.000 C 77.560 86.000,77.362 86.225,77.167 86.500 M244.410 91.375 L 243.583 92.250 244.458 91.423 C 244.940 90.968,245.333 90.574,245.333 90.548 C 245.333 90.424,245.179 90.562,244.410 91.375 M59.167 93.500 C 59.362 93.775,59.560 94.000,59.606 94.000 C 59.652 94.000,59.529 93.775,59.333 93.500 C 59.138 93.225,58.940 93.000,58.894 93.000 C 58.848 93.000,58.971 93.225,59.167 93.500 M226.129 95.789 C 226.521 95.824,227.121 95.824,227.463 95.788 C 227.804 95.752,227.483 95.723,226.750 95.724 C 226.017 95.724,225.737 95.754,226.129 95.789 M68.667 96.333 C 68.862 96.608,69.060 96.833,69.106 96.833 C 69.152 96.833,69.029 96.608,68.833 96.333 C 68.638 96.058,68.440 95.833,68.394 95.833 C 68.348 95.833,68.471 96.058,68.667 96.333 M67.000 99.000 C 67.196 99.275,67.394 99.500,67.439 99.500 C 67.485 99.500,67.362 99.275,67.167 99.000 C 66.971 98.725,66.773 98.500,66.727 98.500 C 66.681 98.500,66.804 98.725,67.000 99.000 M64.077 100.458 C 64.334 100.848,64.576 101.167,64.615 101.167 C 64.735 101.167,64.097 100.152,63.847 99.946 C 63.716 99.838,63.820 100.069,64.077 100.458 M257.579 103.542 L 256.417 104.750 257.625 103.588 C 258.747 102.508,258.909 102.333,258.787 102.333 C 258.762 102.333,258.218 102.877,257.579 103.542 M241.042 111.115 C 241.202 111.157,241.465 111.157,241.625 111.115 C 241.785 111.073,241.654 111.039,241.333 111.039 C 241.012 111.039,240.881 111.073,241.042 111.115 M234.042 111.448 C 234.202 111.490,234.465 111.490,234.625 111.448 C 234.785 111.406,234.654 111.372,234.333 111.372 C 234.012 111.372,233.881 111.406,234.042 111.448 M159.718 111.625 C 160.892 111.653,162.767 111.653,163.885 111.624 C 165.002 111.596,164.042 111.572,161.750 111.572 C 159.458 111.572,158.544 111.596,159.718 111.625 M229.292 111.618 C 229.498 111.657,229.835 111.657,230.042 111.618 C 230.248 111.578,230.079 111.545,229.667 111.545 C 229.254 111.545,229.085 111.578,229.292 111.618 M179.465 111.790 C 180.041 111.823,180.941 111.823,181.465 111.790 C 181.988 111.757,181.517 111.730,180.417 111.730 C 179.317 111.731,178.888 111.758,179.465 111.790 M222.958 111.787 C 223.256 111.824,223.744 111.824,224.042 111.787 C 224.340 111.750,224.096 111.720,223.500 111.720 C 222.904 111.720,222.660 111.750,222.958 111.787 M200.125 111.958 C 202.715 111.984,206.952 111.984,209.542 111.958 C 212.131 111.932,210.012 111.911,204.833 111.911 C 199.654 111.911,197.535 111.932,200.125 111.958 M8.970 114.958 C 11.566 114.984,15.766 114.984,18.304 114.958 C 20.841 114.932,18.717 114.911,13.583 114.911 C 8.450 114.911,6.374 114.932,8.970 114.958 " stroke="none" fill="#040404" fill-rule="evenodd"></path><path id="path4" d="" stroke="none" fill="#bc100bc" fill-rule="evenodd"></path></g></svg>